<?xml version="1.0" encoding="UTF-8" standalone="no"?>
<!-- Generator: Adobe Illustrator 24.3.0, SVG Export Plug-In . SVG Version: 6.00 Build 0)  -->

<svg
   version="1.2"
   x="0px"
   y="0px"
   viewBox="0 0 160 160"
   overflow="visible"
   xml:space="preserve"
   id="svg4"
   sodipodi:docname="mqtt-icon-transparent.svg"
   inkscape:version="1.3.2 (091e20e, 2023-11-25, custom)"
   width="160"
   height="160"
   xmlns:inkscape="http://www.inkscape.org/namespaces/inkscape"
   xmlns:sodipodi="http://sodipodi.sourceforge.net/DTD/sodipodi-0.dtd"
   xmlns="http://www.w3.org/2000/svg"
   xmlns:svg="http://www.w3.org/2000/svg"><defs
   id="defs4" /><sodipodi:namedview
   id="namedview4"
   pagecolor="#ffffff"
   bordercolor="#666666"
   borderopacity="1.0"
   inkscape:showpageshadow="2"
   inkscape:pageopacity="0.0"
   inkscape:pagecheckerboard="0"
   inkscape:deskcolor="#d1d1d1"
   inkscape:zoom="1.2703125"
   inkscape:cx="27.945879"
   inkscape:cy="145.23985"
   inkscape:window-width="1920"
   inkscape:window-height="1009"
   inkscape:window-x="-8"
   inkscape:window-y="-8"
   inkscape:window-maximized="1"
   inkscape:current-layer="svg4" />
<g
   id="black_bg"
   display="none">
	<rect
   display="inline"
   width="320"
   height="320"
   id="rect1"
   x="0"
   y="0" />
</g>
<g
   id="logos"
   style="fill:#f9f9f9"
   transform="matrix(0.5,0,0,0.5,-0.025,-0.025)">
	<g
   id="g4"
   style="fill:#f9f9f9">
		<path
   fill="#660066"
   d="m 7.1,180.6 v 117.1 c 0,8.4 6.8,15.3 15.3,15.3 H 142 C 141,239.8 80.9,180.7 7.1,180.6 Z"
   id="path1"
   style="fill:#f9f9f9" />
		<path
   fill="#660066"
   d="m 7.1,84.1 v 49.8 c 99,0.9 179.4,80.7 180.4,179.1 h 51.7 C 238.2,186.6 134.5,84.2 7.1,84.1 Z"
   id="path2"
   style="fill:#f9f9f9" />
		<path
   fill="#660066"
   d="M 312.9,297.6 V 193.5 C 278.1,107.2 207.3,38.9 119,7.1 H 22.4 C 14,7.1 7.1,13.9 7.1,22.4 v 15 c 152.6,0.9 276.6,124 277.6,275.6 h 13 c 8.4,-0.1 15.2,-6.9 15.2,-15.4 z"
   id="path3"
   style="fill:#f9f9f9" />
		<path
   fill="#660066"
   d="m 272.6,49.8 c 14.5,14.4 28.6,31.7 40.4,47.8 V 22.4 C 313,14 306.2,7.1 297.7,7.1 h -77.3 c 18,12.6 36.2,26.8 52.2,42.7 z"
   id="path4"
   style="fill:#f9f9f9" />
	</g>
</g>
</svg>
